<svg xmlns="http://www.w3.org/2000/svg" viewBox="0 0 512 512">
  <defs>
    <linearGradient id="bg" x1="0" y1="0" x2="0" y2="1">
      <stop offset="0%" stop-color="#21114e"/>
      <stop offset="100%" stop-color="#050816"/>
    </linearGradient>
    <linearGradient id="blade" x1="0" y1="0" x2="1" y2="1">
      <stop offset="0%" stop-color="#f7f9ff"/>
      <stop offset="100%" stop-color="#6df7ff"/>
    </linearGradient>
  </defs>
  <rect width="512" height="512" rx="110" fill="url(#bg)"/>
  <circle cx="256" cy="172" r="130" fill="#6c43ff" opacity=".22"/>
  <path d="M128 408h256" stroke="#ff9d33" stroke-width="16" stroke-linecap="round"/>
  <rect x="184" y="240" width="144" height="146" rx="34" fill="#1f255e"/>
  <rect x="196" y="250" width="120" height="44" rx="20" fill="#4867ff"/>
  <ellipse cx="256" cy="208" rx="40" ry="42" fill="#11173c"/>
  <rect x="215" y="188" width="82" height="16" rx="8" fill="#ff623f"/>
  <rect x="214" y="364" width="84" height="22" rx="11" fill="#9b7dff"/>
  <rect x="198" y="276" width="116" height="14" rx="7" fill="#ff623f"/>
  <ellipse cx="256" cy="258" rx="72" ry="18" fill="#9b7dff"/>
  <ellipse cx="256" cy="354" rx="72" ry="18" fill="#9b7dff"/>
  <path d="M330 170l18 18-112 170c-13 20-42 9-39-15l19-131z" fill="url(#blade)"/>
  <path d="M339 158l27 27-23 24-28-27z" fill="#d7aa34"/>
</svg>
